<?xml version="1.0" encoding="utf-8"?>
<!-- Generator: Adobe Illustrator 19.2.0, SVG Export Plug-In . SVG Version: 6.00 Build 0)  -->
<svg version="1.1" id="Layer_1" xmlns="http://www.w3.org/2000/svg" xmlns:xlink="http://www.w3.org/1999/xlink" x="0px" y="0px"
	 viewBox="0 0 1000 1000" style="enable-background:new 0 0 1000 1000;" xml:space="preserve">
<g>
	<path d="M399,380c31.3,3.5,67.6,14.9,95.3,29.6c3.2,1.7,4.3,3.7,4.3,7.4c-0.1,59.1,0,123.1,0,182.3l0,0
		c-31.4-17.1-64.5-28.1-99.8-31.4c0-2.4,0-4.2,0-6c0-46,0-91.9,0-137.9C398.8,409.3,398.9,394.7,399,380"/>
	<path d="M494,622c-21.5-6.9-45.8-11.5-68.3-11.7c-16.9-0.1-33.9,1.7-50.8,2.4c-2.9,0.1-5.9-1.1-8.9-1.7c0-63,0-126,0-189
		c3.1-0.4,6.2-0.8,10.1-1.2c0,57.6,0,114.8,0,172.2c6.8,0,13,0,19.1,0c35.6,0.2,69.5,8.4,102.2,22.3c2.2,0.9,5.3,1.3,7.3,0.4
		c37.7-16.4,76.9-24.4,118.1-22.6c1.1,0,2.3-0.1,3.9-0.2c0-57.2,0-114.3,0-172.1c3.9,0.4,7.1,0.8,10.3,1.2c0,63,0,126,0,189
		c-3,0.6-6,2-8.9,1.7c-27.6-3.4-55.1-4.1-82.6,0.5c-12.3,2.1-24.4,5.8-36.6,8.8"/>
	<path d="M392.7,573.1c7.4,1,14.3,1.8,21.2,2.8c28.5,4.1,55,13.9,80,27.8c5.5,3,9.8,3,15.2,0c28.2-15.7,58.3-25.6,90.4-29.3
		c3.4-0.4,6.8-0.6,10.7-0.9c0-57.7,0-114.7,0-172.1c3.5,0,6.6,0,10.1,0c0,61.8,0,123.5,0,185.7c-3,0-5.8,0-8.5,0
		c-35.6-0.3-69.7,6.9-102.5,20.5c-5.5,2.3-10.2,2.2-15.7-0.1c-32.3-13.4-65.9-20.6-101-20.5c-3.2,0-6.3,0-9.9,0
		c0-61.9,0-123.6,0-185.6c3.2,0,6.3,0,10,0C392.7,458.5,392.7,515.7,392.7,573.1z"/>
</g>
<path d="M604,380c-31.3,3.5-67.6,14.9-95.3,29.6c-3.2,1.7-4.3,3.7-4.3,7.4c0.1,59.1,0,123.1,0,182.3l0,0
	c31.4-17.1,64.5-28.1,99.8-31.4c0-2.4,0-4.2,0-6c0-46,0-91.9,0-137.9C604.2,409.3,604.1,394.7,604,380"/>
</svg>
